# xmcd CD database file
#
# Track frame offsets:
#	150
#	18903
#	50856
#	77408
#	91064
#	106445
#	129475
#	155956
#	173658
#	201787
#	219788
#	239140
#	261947
#	284448
#
# Disc length: 3974 seconds
#
# Revision: 1
# Processed by: cddbd v1.5PL3 Copyright (c) Steve Scherf et al.
# Submitted via: CDex 1.51
#
DISCID=c40f840e
DTITLE=Enigma - Light Of Your Smile  Disc 2
DYEAR=1998
DGENRE=New Age
TTITLE0=Return To Innocence (radio edit)
TTITLE1=Return To Innocence (long and alive version)
TTITLE2=Return To Innocence (380 midnight mix)
TTITLE3=Return To Innocence (shorm radio edit)
TTITLE4=Principles Of Lust (radio edit)
TTITLE5=Principles Of Lust (everlasting lust mix)
TTITLE6=Principles Of Lust (the omen mix)
TTITLE7=Mea Culpa Part II
TTITLE8=Mea Culpa Part II (fading shades mix)
TTITLE9=Mea Culpa Part II (orthodox version)
TTITLE10=Sadeness Part I (radio edit)
TTITLE11=Sadeness Part I (violent us remix)
TTITLE12=Sadeness Part I (extended trance mix)
TTITLE13=Sadeness Part I (meditation mix)
EXTD=YEAR: 1998
EXTT0=
EXTT1=
EXTT2=
EXTT3=
EXTT4=
EXTT5=
EXTT6=
EXTT7=
EXTT8=
EXTT9=
EXTT10=
EXTT11=
EXTT12=
EXTT13=
PLAYORDER=
